<svg width="1440" height="642" viewBox="0 0 1440 642" fill="none" xmlns="http://www.w3.org/2000/svg">
<g opacity="0.5" filter="url(#filter0_d_56_109656)">
<mask id="mask0_56_109656" style="mask-type:alpha" maskUnits="userSpaceOnUse" x="0" y="-210" width="1440" height="1230">
<path d="M0 -209.318H1440V1019.4H0V-209.318Z" fill="white"/>
</mask>
<g mask="url(#mask0_56_109656)">
<path d="M0 -209.4H1440V1019.4H0V-209.4Z" fill="url(#paint0_linear_56_109656)"/>
<path d="M1707.48 2266.08C2260.97 2266.08 2709.67 1817.39 2709.67 1263.89C2709.67 710.397 2260.97 261.701 1707.48 261.701C1153.98 261.701 705.285 710.397 705.285 1263.89C705.285 1817.39 1153.98 2266.08 1707.48 2266.08Z" fill="url(#paint1_linear_56_109656)"/>
<path d="M-130.91 986.93C422.585 986.93 871.28 538.235 871.28 -15.2598C871.28 -568.754 422.585 -1017.45 -130.91 -1017.45C-684.404 -1017.45 -1133.1 -568.754 -1133.1 -15.2598C-1133.1 538.235 -684.404 986.93 -130.91 986.93Z" fill="url(#paint2_linear_56_109656)"/>
<path d="M-247.105 1061.63C129.913 1061.63 435.546 755.994 435.546 378.976C435.546 1.9584 129.913 -303.675 -247.105 -303.675C-624.123 -303.675 -929.756 1.9584 -929.756 378.976C-929.756 755.994 -624.123 1061.63 -247.105 1061.63Z" fill="url(#paint3_linear_56_109656)"/>
</g>
</g>
<defs>
<filter id="filter0_d_56_109656" x="-4" y="-209.318" width="1448" height="1236.72" filterUnits="userSpaceOnUse" color-interpolation-filters="sRGB">
<feFlood flood-opacity="0" result="BackgroundImageFix"/>
<feColorMatrix in="SourceAlpha" type="matrix" values="0 0 0 0 0 0 0 0 0 0 0 0 0 0 0 0 0 0 127 0" result="hardAlpha"/>
<feOffset dy="4"/>
<feGaussianBlur stdDeviation="2"/>
<feComposite in2="hardAlpha" operator="out"/>
<feColorMatrix type="matrix" values="0 0 0 0 0 0 0 0 0 0 0 0 0 0 0 0 0 0 0.25 0"/>
<feBlend mode="normal" in2="BackgroundImageFix" result="effect1_dropShadow_56_109656"/>
<feBlend mode="normal" in="SourceGraphic" in2="effect1_dropShadow_56_109656" result="shape"/>
</filter>
<linearGradient id="paint0_linear_56_109656" x1="1440" y1="11.784" x2="587.438" y2="692.234" gradientUnits="userSpaceOnUse">
<stop stop-color="#75AAEB"/>
<stop offset="1" stop-color="#307FE2"/>
</linearGradient>
<linearGradient id="paint1_linear_56_109656" x1="1707.48" y1="0.73119" x2="705.285" y2="2127.19" gradientUnits="userSpaceOnUse">
<stop stop-color="#307FE2"/>
<stop offset="1" stop-color="#75AAEB"/>
</linearGradient>
<linearGradient id="paint2_linear_56_109656" x1="1176.5" y1="-309.963" x2="-1010.4" y2="986.93" gradientUnits="userSpaceOnUse">
<stop stop-color="#307FE2"/>
<stop offset="1" stop-color="#75AAEB"/>
</linearGradient>
<linearGradient id="paint3_linear_56_109656" x1="435.546" y1="-303.675" x2="4.01017" y2="939.381" gradientUnits="userSpaceOnUse">
<stop stop-color="#93BCF0"/>
<stop offset="1" stop-color="#307FE2"/>
</linearGradient>
</defs>
</svg>
